<svg width="210" height="40" viewBox="0 0 210 40" fill="none" xmlns="http://www.w3.org/2000/svg">
<path d="M20.8576 2.45383C21.0806 2.00768 21.4153 1.48717 21.8614 0.892303C22.3447 0.297434 22.8095 0 23.2556 0H26.2114C26.6575 0 27.1037 0.297434 27.5498 0.892303C28.0332 1.48717 28.3864 2.00768 28.6094 2.45383L34.8556 18.9614L40.5998 0H49.467L41.6036 24.0364C41.1575 25.3005 40.3581 26.2857 39.2055 26.9922C38.0902 27.6986 36.9562 28.0518 35.8036 28.0518H33.796C32.8293 28.0518 31.8069 27.7171 30.7287 27.0479C29.6505 26.3787 28.7953 25.3749 28.1633 24.0364L24.7056 14.1095L21.3037 24.0364C20.6717 25.3749 19.8166 26.3787 18.7384 27.0479C17.6602 27.7171 16.6377 28.0518 15.6711 28.0518H13.6634C12.4736 28.0518 11.3211 27.6986 10.2057 26.9922C9.09033 26.2857 8.30957 25.3005 7.86342 24.0364L0 0H8.86726L14.6115 18.9614L20.8576 2.45383Z" fill="#00B5FF"/>
<path d="M52.0346 28.0518V10.7076H60.1211V28.0518H52.0346ZM60.1211 0V7.5288H52.0346V0H60.1211Z" fill="#00B5FF"/>
<path d="M70.1028 0.0557682C70.7349 0.130128 71.5342 0.52051 72.5009 1.22692C73.5047 1.89614 74.7874 2.93716 76.3489 4.34998C77.9105 5.72561 79.8252 7.51021 82.0931 9.70379C84.3982 11.8602 87.1681 14.4627 90.4027 17.5114V0H98.4334V24.5383C98.4334 24.9845 98.3033 25.412 98.043 25.821C97.82 26.23 97.5039 26.6018 97.095 26.9364C96.686 27.271 96.2027 27.5498 95.645 27.7729C95.0873 27.9588 94.511 28.0518 93.9161 28.0518H92.3546C92.2059 28.0518 92.1129 28.0332 92.0758 27.996C91.4809 27.9216 90.663 27.5313 89.6219 26.8248C88.6181 26.1184 87.2982 25.0588 85.6623 23.646C84.0636 22.2332 82.1117 20.4486 79.8066 18.2922C77.5387 16.0986 74.8432 13.4961 71.7201 10.4846V28.0518H63.6894V3.51344C63.6894 3.10447 63.8009 2.6955 64.024 2.28653C64.2843 1.84037 64.6189 1.44999 65.0278 1.11538C65.4368 0.780765 65.9202 0.52051 66.4778 0.334614C67.0355 0.111538 67.6304 0 68.2624 0H69.7682C69.9541 0 70.0656 0.0185894 70.1028 0.0557682Z" fill="#00B5FF"/>
<path d="M101.976 7.5288V0H135.66V7.5288H122.834V28.0518H114.803V7.5288H101.976Z" fill="white"/>
<path d="M154.219 9.36918C154.219 9.1461 154.107 8.92303 153.884 8.69995C153.661 8.47687 153.364 8.36534 152.992 8.36534C152.583 8.36534 152.155 8.55123 151.709 8.92303C151.3 9.29482 150.929 9.66661 150.594 10.0384L145.129 16.6749H154.219V9.36918ZM162.25 6.35765V28.0518H154.219V23.4229H140.165L136.484 28.0518H127.059L146.579 2.00768C147.434 1.2641 148.605 0.743585 150.092 0.44615C151.616 0.148717 153.122 0 154.609 0C155.762 0 156.803 0.111538 157.732 0.334614C158.662 0.52051 159.461 0.855123 160.13 1.33845C160.8 1.82178 161.32 2.47242 161.692 3.29036C162.064 4.10831 162.25 5.13074 162.25 6.35765Z" fill="white"/>
<path d="M165.805 10.5961H190.344V7.5288H165.805V0H193.913C194.433 0 194.954 0.130127 195.474 0.390382C196.032 0.650637 196.515 1.00384 196.924 1.44999C197.371 1.85896 197.724 2.34229 197.984 2.89998C198.244 3.42049 198.374 3.95959 198.374 4.51728V12.9384C198.374 13.4961 198.244 14.0538 197.984 14.6115C197.724 15.132 197.371 15.6153 196.924 16.0614C196.515 16.4704 196.032 16.805 195.474 17.0653C194.954 17.3255 194.433 17.4557 193.913 17.4557H191.626L207.409 39.2055H198.374L182.034 17.4557H173.836V28.0518H165.805V10.5961Z" fill="white"/>
<path d="M201.913 28.0518V10.7076H210V28.0518H201.913ZM210 0V7.5288H201.913V0H210Z" fill="white"/>
</svg>
